<?xml version="1.0" encoding="utf-8"?>
<!-- Generator: Adobe Illustrator 25.0.0, SVG Export Plug-In . SVG Version: 6.00 Build 0)  -->
<svg version="1.1" id="Layer_1" focusable="false" xmlns="http://www.w3.org/2000/svg" xmlns:xlink="http://www.w3.org/1999/xlink"
	 x="0px" y="0px" viewBox="0 0 700.9 512" style="enable-background:new 0 0 700.9 512;" xml:space="preserve">
<style type="text/css">
	.st0{opacity:0.1;fill:#FF2A2A;}
	.st1{opacity:0.1;fill:url(#SVGID_1_);}
	.st2{opacity:0.1;fill:url(#SVGID_2_);}
	.st3{opacity:0.1;fill:url(#SVGID_3_);}
	.st4{opacity:0.1;fill:url(#SVGID_4_);}
	.st5{opacity:0.1;fill:url(#SVGID_5_);}
	.st6{opacity:0.1;fill:url(#SVGID_6_);}
</style>
<path class="st0" d="M650.7,134.8C682.8,74.9,666.1,26.5,647.5,3c-2.8-3.4-7.8-4-11.2-1.2c-0.2,0.2-0.5,0.4-0.7,0.6l-22.9,23
	c-2.7,2.8-3.1,7-0.9,10.2c6.9,10.4,17,35.1-1.4,72.3c-18-7.9-37.5-12-57.2-12c-28,0-54,8.5-76.3,22.6l74.7,34.3V231h89.1l54.7,56.9
	c3.3-12.6,5.6-25.6,5.6-39.3C700.9,205.3,682.7,164,650.7,134.8z"/>
<path class="st0" d="M664.1,301.7C615.5,389.1,457.5,512,244.9,512c-28.8,0-52.5-21.8-55.7-49.7c-0.2-2.1-0.3-4.2-0.3-6.3
	c0-6.3,1.1-12.5,3-18.2c7.5-22,28.4-37.8,53-37.8c1.7,0,3.3,0,5-0.1c29.8-0.9,54.2-10,74.6-24.4c7.4-5.2,14.3-11.1,20.8-17.6
	c4.6-4.6,8.9-9.4,13.1-14.5c2.6-3.2,5.2-6.5,7.7-9.9c3.4-4.7,6.8-9.5,9.9-14.5c3.7-5.7,7.2-11.6,10.6-17.6c2.7-4.8,5.3-9.6,7.9-14.5
	c1.7-3.3,3.4-6.6,5.1-9.9c2.4-4.8,4.8-9.7,7.1-14.5c2.8-5.9,5.6-11.8,8.3-17.6c2.2-4.9,4.5-9.7,6.7-14.5c1.5-3.3,3-6.6,4.6-9.9
	c2.3-4.9,4.6-9.8,6.8-14.5c2.9-6.1,5.8-12,8.8-17.6c2.6-5,5.3-9.9,8-14.5c2-3.4,4.1-6.8,6.2-9.9c3.5-5.2,7-10.1,10.7-14.5l13.2,6
	l39.6,18.2v89.8h107.5L664.1,301.7z"/>
<linearGradient id="SVGID_1_" gradientUnits="userSpaceOnUse" x1="2.842495e-03" y1="161.415" x2="466.7929" y2="161.415">
	<stop  offset="0" style="stop-color:#FFFFFF;stop-opacity:0"/>
	<stop  offset="0.1228" style="stop-color:#FFD3D3;stop-opacity:0.1228"/>
	<stop  offset="0.285" style="stop-color:#FFA0A0;stop-opacity:0.285"/>
	<stop  offset="0.4448" style="stop-color:#FF7676;stop-opacity:0.4448"/>
	<stop  offset="0.5991" style="stop-color:#FF5555;stop-opacity:0.5991"/>
	<stop  offset="0.7462" style="stop-color:#FF3D3D;stop-opacity:0.7462"/>
	<stop  offset="0.8832" style="stop-color:#FF2F2F;stop-opacity:0.8832"/>
	<stop  offset="1" style="stop-color:#FF2A2A"/>
</linearGradient>
<path class="st1" d="M466.8,149.2c-3.7,4.4-7.3,9.3-10.7,14.5c-2.1,3.2-4.1,6.5-6.2,9.9H0v-24.4H466.8z"/>
<linearGradient id="SVGID_2_" gradientUnits="userSpaceOnUse" x1="2.842495e-03" y1="217.99" x2="433.0229" y2="217.99">
	<stop  offset="0" style="stop-color:#FFFFFF;stop-opacity:0"/>
	<stop  offset="0.1228" style="stop-color:#FFD3D3;stop-opacity:0.1228"/>
	<stop  offset="0.285" style="stop-color:#FFA0A0;stop-opacity:0.285"/>
	<stop  offset="0.4448" style="stop-color:#FF7676;stop-opacity:0.4448"/>
	<stop  offset="0.5991" style="stop-color:#FF5555;stop-opacity:0.5991"/>
	<stop  offset="0.7462" style="stop-color:#FF3D3D;stop-opacity:0.7462"/>
	<stop  offset="0.8832" style="stop-color:#FF2F2F;stop-opacity:0.8832"/>
	<stop  offset="1" style="stop-color:#FF2A2A"/>
</linearGradient>
<path class="st2" d="M433,205.8c-2.3,4.7-4.6,9.6-6.8,14.5c-1.5,3.3-3,6.6-4.6,9.9H0v-24.4H433z"/>
<linearGradient id="SVGID_3_" gradientUnits="userSpaceOnUse" x1="2.842495e-03" y1="274.565" x2="406.6828" y2="274.565">
	<stop  offset="0" style="stop-color:#FFFFFF;stop-opacity:0"/>
	<stop  offset="0.1228" style="stop-color:#FFD3D3;stop-opacity:0.1228"/>
	<stop  offset="0.285" style="stop-color:#FFA0A0;stop-opacity:0.285"/>
	<stop  offset="0.4448" style="stop-color:#FF7676;stop-opacity:0.4448"/>
	<stop  offset="0.5991" style="stop-color:#FF5555;stop-opacity:0.5991"/>
	<stop  offset="0.7462" style="stop-color:#FF3D3D;stop-opacity:0.7462"/>
	<stop  offset="0.8832" style="stop-color:#FF2F2F;stop-opacity:0.8832"/>
	<stop  offset="1" style="stop-color:#FF2A2A"/>
</linearGradient>
<path class="st3" d="M406.7,262.3c-2.3,4.9-4.7,9.7-7.1,14.5c-1.7,3.3-3.3,6.6-5.1,9.9H0v-24.4H406.7z"/>
<linearGradient id="SVGID_4_" gradientUnits="userSpaceOnUse" x1="2.842495e-03" y1="331.135" x2="376.0528" y2="331.135">
	<stop  offset="0" style="stop-color:#FFFFFF;stop-opacity:0"/>
	<stop  offset="0.1228" style="stop-color:#FFD3D3;stop-opacity:0.1228"/>
	<stop  offset="0.285" style="stop-color:#FFA0A0;stop-opacity:0.285"/>
	<stop  offset="0.4448" style="stop-color:#FF7676;stop-opacity:0.4448"/>
	<stop  offset="0.5991" style="stop-color:#FF5555;stop-opacity:0.5991"/>
	<stop  offset="0.7462" style="stop-color:#FF3D3D;stop-opacity:0.7462"/>
	<stop  offset="0.8832" style="stop-color:#FF2F2F;stop-opacity:0.8832"/>
	<stop  offset="1" style="stop-color:#FF2A2A"/>
</linearGradient>
<path class="st4" d="M376.1,318.9c-3.2,5-6.5,9.8-9.9,14.5c-2.5,3.4-5,6.7-7.7,9.9H0v-24.4H376.1z"/>
<linearGradient id="SVGID_5_" gradientUnits="userSpaceOnUse" x1="2.842495e-03" y1="387.705" x2="324.5128" y2="387.705">
	<stop  offset="0" style="stop-color:#FFFFFF;stop-opacity:0"/>
	<stop  offset="0.1228" style="stop-color:#FFD3D3;stop-opacity:0.1228"/>
	<stop  offset="0.285" style="stop-color:#FFA0A0;stop-opacity:0.285"/>
	<stop  offset="0.4448" style="stop-color:#FF7676;stop-opacity:0.4448"/>
	<stop  offset="0.5991" style="stop-color:#FF5555;stop-opacity:0.5991"/>
	<stop  offset="0.7462" style="stop-color:#FF3D3D;stop-opacity:0.7462"/>
	<stop  offset="0.8832" style="stop-color:#FF2F2F;stop-opacity:0.8832"/>
	<stop  offset="1" style="stop-color:#FF2A2A"/>
</linearGradient>
<path class="st5" d="M324.5,375.5c-20.5,14.4-44.8,23.5-74.6,24.4H0v-24.4H324.5z"/>
<linearGradient id="SVGID_6_" gradientUnits="userSpaceOnUse" x1="2.842495e-03" y1="450.065" x2="191.9129" y2="450.065">
	<stop  offset="0" style="stop-color:#FFFFFF;stop-opacity:0"/>
	<stop  offset="0.1228" style="stop-color:#FFD3D3;stop-opacity:0.1228"/>
	<stop  offset="0.285" style="stop-color:#FFA0A0;stop-opacity:0.285"/>
	<stop  offset="0.4448" style="stop-color:#FF7676;stop-opacity:0.4448"/>
	<stop  offset="0.5991" style="stop-color:#FF5555;stop-opacity:0.5991"/>
	<stop  offset="0.7462" style="stop-color:#FF3D3D;stop-opacity:0.7462"/>
	<stop  offset="0.8832" style="stop-color:#FF2F2F;stop-opacity:0.8832"/>
	<stop  offset="1" style="stop-color:#FF2A2A"/>
</linearGradient>
<path class="st6" d="M188.9,456c0,2.1,0.1,4.2,0.3,6.3H0v-24.4h191.9C190,443.5,188.9,449.7,188.9,456z"/>
</svg>
